# Blender v2.80 (sub 45) OBJ File: 'Panel.blend'
# www.blender.org
mtllib PanelWood2.mtl
o Cube_Cube.001
v -0.500000 -0.050000 0.500000
v -0.500000 0.050000 0.500000
v -0.500000 -0.050000 -0.500000
v -0.500000 0.050000 -0.500000
v 0.500000 -0.050000 0.500000
v 0.500000 0.050000 0.500000
v 0.500000 -0.050000 -0.500000
v 0.500000 0.050000 -0.500000
v -0.400000 -0.050000 -0.400000
v -0.400000 -0.050000 0.400000
v -0.400000 0.050000 0.400000
v -0.400000 0.050000 -0.400000
v 0.400000 -0.050000 -0.400000
v 0.400000 0.050000 -0.400000
v 0.400000 -0.050000 0.400000
v 0.400000 0.050000 0.400000
vt 0.071429 0.950000
vt 0.071429 0.550000
vt 0.642857 0.550000
vt 0.642857 0.950000
vt 0.642857 0.050000
vt 0.642857 0.450000
vt 0.071429 0.450000
vt 0.071429 0.050000
vt 0.857143 0.500000
vt 0.785714 0.500000
vt 0.785714 0.000000
vt 0.857143 0.000000
vt 0.714285 0.000000
vt 0.714285 0.500000
vt 0.000000 1.000000
vt 0.000000 0.500000
vt 0.857143 0.000000
vt 0.928571 0.000000
vt 0.928571 0.500000
vt 0.857143 0.500000
vt 0.714285 0.500000
vt 0.714285 1.000000
vt 0.000000 0.500000
vt 0.000000 0.000000
vt 0.785714 0.500000
vt 0.714286 0.500000
vt 0.714285 0.000000
vt 0.785714 0.000000
vt 1.000000 0.500000
vt 0.928571 0.000000
vt 1.000000 0.000000
vn 0.0000 -1.0000 0.0000
vn 0.0000 1.0000 0.0000
vn 0.0000 0.0000 -1.0000
vn 0.0000 0.0000 1.0000
vn 1.0000 0.0000 0.0000
vn -1.0000 0.0000 0.0000
usemtl Main
s off
f 9/1/1 13/2/1 15/3/1 10/4/1
f 14/5/2 12/6/2 11/7/2 16/8/2
usemtl FrontEdge
f 3/9/3 4/10/3 8/11/3 7/12/3
f 8/13/2 4/14/2 12/6/2 14/5/2
f 3/15/1 7/16/1 13/2/1 9/1/1
usemtl BackEdge
f 5/17/4 6/18/4 2/19/4 1/20/4
f 5/21/1 1/22/1 10/4/1 15/3/1
f 2/23/2 6/24/2 16/8/2 11/7/2
usemtl RightEdge
f 7/25/5 8/26/5 6/27/5 5/28/5
f 7/16/1 5/21/1 15/3/1 13/2/1
f 6/24/2 8/13/2 14/5/2 16/8/2
usemtl LeftEdge
f 1/29/6 2/19/6 4/30/6 3/31/6
f 4/14/2 2/23/2 11/7/2 12/6/2
f 1/22/1 3/15/1 9/1/1 10/4/1
